PathFileType	4	(X/Y/Z)	s06c0102.trc
DataRate	CameraRate	NumFrames	NumMarkers	Units	OrigDataRate	OrigDataStartFrame	OrigNumFrames
200	200	5	48	mm	200	750	2000
Frame#	Time	racr			lacr			c7			jug			rlel			rdr			llel			ldr			s2			lic			ric			lasi			rasi			rpsi			lpsi			rgt			lgt			rth1			rth2			rth3			rth4			rlfc			rmfc			rsh1			rsh2			rsh3			rsh4			rlmal			rcal			rtoe			rmt5			lth1			lth2			lth4			lth3			llfc			lmfc			llmal			lcal			lmt5			lsh1			lsh2			lsh3			lsh4			ltoe			SBIKE			LBIKE			RBIKE			
		X1	Y1	Z1	X2	Y2	Z2	X3	Y3	Z3	X4	Y4	Z4	X5	Y5	Z5	X6	Y6	Z6	X7	Y7	Z7	X8	Y8	Z8	X9	Y9	Z9	X10	Y10	Z10	X11	Y11	Z11	X12	Y12	Z12	X13	Y13	Z13	X14	Y14	Z14	X15	Y15	Z15	X16	Y16	Z16	X17	Y17	Z17	X18	Y18	Z18	X19	Y19	Z19	X20	Y20	Z20	X21	Y21	Z21	X22	Y22	Z22	X23	Y23	Z23	X24	Y24	Z24	X25	Y25	Z25	X26	Y26	Z26	X27	Y27	Z27	X28	Y28	Z28	X29	Y29	Z29	X30	Y30	Z30	X31	Y31	Z31	X32	Y32	Z32	X33	Y33	Z33	X34	Y34	Z34	X35	Y35	Z35	X36	Y36	Z36	X37	Y37	Z37	X38	Y38	Z38	X39	Y39	Z39	X40	Y40	Z40	X41	Y41	Z41	X42	Y42	Z42	X43	Y43	Z43	X44	Y44	Z44	X45	Y45	Z45	X46	Y46	Z46	X47	Y47	Z47	X48	Y48	Z48	
750	3.7500	510.765080	1294.741643	-62.840218	528.474442	1285.460281	-353.289048	505.775129	1362.619087	-209.953777	495.019736	1195.795371	-205.118839	533.371716	1055.048512	53.935906	717.220015	926.003797	-43.982700	500.684380	1034.030475	-459.382090	708.097719	927.869727	-401.519122	-31.424611	1150.224176	-225.256724	139.501514	1126.363195	-389.264052	100.443879	1138.922199	-63.055001	160.530836	1075.407811	-353.541337	133.340988	1096.809335	-95.458934	-3.430172	1194.086421	-203.525362	-2.799271	1185.074491	-263.952213	91.948703	1081.178578	-24.320854	105.684920	1037.300734	-419.252544	202.529975	1036.053538	-18.117902	292.352669	1021.076098	-22.578448	359.793639	966.509177	-20.705103	303.156120	1050.226399	-44.598883	425.820162	886.000886	-44.336945	416.854816	862.902440	-157.451049	351.579660	786.653409	-27.045193	304.916695	717.470749	-50.224532	228.622752	673.575777	-54.461538	322.455570	704.385315	-85.099830	158.430218	626.094690	-63.410544	95.092169	642.848017	-114.736849	274.616045	433.228171	-98.036487	190.500897	491.859679	-35.058247	131.957819	909.218677	-436.948037	185.244347	840.352877	-432.090934	218.661356	854.512426	-424.376190	196.880567	752.133651	-424.190874	220.690540	633.821479	-404.428701	228.603508	619.801697	-287.111073	187.945894	266.553101	-376.901203	120.770753	261.154166	-327.000377	287.692567	158.498153	-404.974785	208.020307	524.940412	-421.545392	224.695992	442.025475	-401.320194	197.131506	357.984818	-391.501593	254.400605	445.382456	-375.577413	372.778403	135.473170	-348.675580	-202.656184	867.296716	-215.484948	-48.763923	80.077566	-414.686276	-48.730651	80.206646	-17.187578	
751	3.7550	511.480990	1294.820290	-63.307315	529.323549	1284.889317	-352.733745	506.520863	1362.154860	-210.398278	494.969268	1195.517346	-204.706451	533.240450	1055.337220	53.453787	716.967120	926.497860	-44.162515	501.533218	1033.591565	-459.325515	708.798150	927.320844	-401.741067	-31.208193	1152.981657	-226.334270	139.866620	1128.178802	-390.263120	100.123870	1141.616540	-64.440898	159.999748	1076.191508	-355.105313	131.053941	1097.524923	-96.220864	-3.605561	1196.910367	-204.774760	-2.465517	1187.448574	-265.141714	91.655407	1087.666262	-24.968171	104.370287	1038.912223	-420.380542	202.470333	1042.455560	-19.308918	292.304979	1028.118064	-23.973985	359.743899	973.914186	-22.150858	303.157908	1056.834480	-46.934193	428.023563	894.380581	-45.176870	418.888630	871.447664	-159.556446	356.052469	794.152804	-28.119392	310.473671	724.145186	-50.943364	235.033976	678.965088	-54.604835	328.253311	711.076677	-85.422461	165.302993	629.613524	-63.101578	101.472106	644.224033	-115.171597	285.891422	439.017695	-98.411393	200.450870	495.552505	-35.339621	128.800455	909.882664	-438.323334	181.032963	840.209135	-434.062866	214.723414	853.797391	-426.552135	191.320039	751.794010	-426.478324	213.048421	633.050952	-406.020647	223.544414	619.170001	-288.247524	180.312889	265.965540	-377.086290	113.473515	261.943438	-326.981690	277.687196	155.056354	-405.177966	199.991520	523.981287	-422.800152	216.870075	441.114487	-402.405431	189.432851	357.162257	-392.142928	247.023961	444.623280	-377.519239	362.402939	130.303883	-348.843114	-202.670105	867.406570	-215.727668	-48.768304	80.173706	-414.744122	-48.732650	80.292920	-17.207432	
752	3.7600	512.259923	1294.911944	-63.729237	530.180924	1284.060187	-352.304195	507.306102	1361.678171	-210.805762	494.970473	1195.110862	-204.196650	533.143525	1055.128045	52.734352	716.673220	927.132891	-44.351059	502.026479	1033.057042	-459.577506	709.371770	926.674316	-401.974616	-31.029577	1155.506054	-227.595269	140.220092	1129.725342	-391.252019	99.895194	1144.472348	-65.664751	159.427630	1077.087048	-356.539239	129.847242	1099.364919	-97.031822	-3.426564	1199.740912	-206.048983	-2.265880	1189.855711	-265.850619	91.618558	1092.987822	-26.211840	103.008365	1040.371807	-421.373739	202.669024	1048.430614	-19.911229	292.321573	1034.686250	-25.353066	360.204133	981.022182	-22.313649	303.003319	1063.578566	-48.351723	429.604776	902.901918	-46.750419	420.575758	879.496885	-161.379006	360.324320	801.074301	-29.284474	315.959386	730.110447	-51.650300	241.565401	683.337741	-54.709515	333.892461	717.144577	-85.845502	172.070931	631.610186	-63.195028	107.695309	644.648401	-115.089849	297.315296	444.221059	-98.733048	210.571399	498.639655	-35.448546	125.881653	910.689695	-439.662672	177.150211	840.161254	-435.986561	211.057100	853.373166	-428.590408	186.240267	751.731967	-428.720172	206.315591	632.482366	-407.405230	219.498638	618.731725	-289.371423	171.660863	265.656829	-377.136635	105.294410	262.674374	-326.824925	267.341158	152.457320	-405.273786	192.604443	523.450185	-424.552703	209.143792	440.600164	-403.312708	181.451076	356.752214	-392.614383	239.720499	443.863285	-378.920082	351.645962	126.324799	-348.996122	-202.769731	867.373166	-215.436954	-48.763825	80.230876	-414.767646	-48.710759	80.342130	-17.230458	
753	3.7650	513.028476	1295.008907	-64.017725	531.117397	1283.094370	-351.769598	508.072601	1361.095083	-211.182948	495.081945	1194.557199	-203.670108	533.018509	1054.747169	52.185730	716.328759	927.883991	-44.726175	502.547310	1032.521888	-460.022492	709.851198	925.886829	-402.293809	-30.871969	1158.009993	-228.609428	140.532716	1130.988727	-392.146783	99.805960	1147.137874	-66.873249	158.881624	1077.803132	-357.860049	128.858413	1101.199891	-97.959141	-3.588089	1202.170113	-206.837402	-1.748607	1191.866589	-266.752226	92.226450	1098.162139	-27.598228	101.625286	1041.737755	-422.202541	202.698163	1054.088726	-21.141830	292.422746	1040.530820	-26.793959	360.931757	987.454866	-23.279743	302.872457	1069.329175	-49.929176	430.738021	910.273949	-48.166359	421.873561	886.708602	-162.804960	364.214487	807.345469	-30.557595	321.043221	734.935037	-52.724636	247.447433	687.479355	-55.013442	339.310846	722.392430	-86.717900	178.801390	632.820192	-63.457474	113.783116	643.968094	-115.071804	308.770535	448.710513	-98.912990	220.790071	501.007077	-35.513166	123.264511	911.511629	-440.943782	173.631088	840.303730	-437.949683	207.977564	853.058309	-430.756640	181.607237	751.773937	-430.872125	200.365766	632.215704	-408.511746	216.322163	618.088969	-290.623782	162.235188	265.569836	-376.992195	96.296448	263.339832	-326.491912	256.610089	150.656030	-405.291805	185.762484	523.000027	-425.585507	201.560573	440.149158	-403.886882	173.068925	356.650885	-392.787226	232.510803	443.134510	-379.948722	340.608761	123.406277	-349.061765	-202.759565	867.466371	-215.519124	-48.768859	80.270302	-414.763178	-48.708792	80.367170	-17.245477	
754	3.7700	513.729897	1295.156150	-64.205783	532.110463	1282.139386	-351.352811	508.931838	1360.485780	-211.429899	495.212117	1194.048869	-203.215302	532.503390	1054.321238	51.572262	715.895006	928.638572	-45.151982	503.152652	1031.824885	-460.605693	710.331453	925.012533	-402.589249	-30.718675	1160.576975	-229.554277	140.833577	1131.965768	-393.000054	99.401187	1149.742527	-68.013935	158.434253	1078.418590	-359.172299	128.140726	1103.399291	-98.868779	-3.562597	1204.518129	-208.008323	-1.540994	1194.001684	-267.468368	93.053099	1102.574493	-28.615739	100.183716	1042.913618	-422.868173	202.722311	1059.001192	-22.351180	292.543848	1045.653791	-28.124653	360.539070	993.387812	-23.461681	302.864294	1074.410725	-51.391117	431.527728	916.925449	-49.481744	422.828262	893.360163	-164.762709	367.356974	812.846589	-31.846390	325.860593	739.229598	-53.487250	253.509086	690.140398	-55.200838	344.275204	727.195637	-87.190177	185.474949	633.144062	-63.722743	119.685115	642.254169	-115.281312	320.339847	452.773585	-99.066448	230.925726	502.571471	-35.598867	120.861728	912.232223	-442.144409	170.524149	840.482277	-439.862003	205.128041	852.880688	-432.767203	177.562231	751.864652	-432.771920	195.338136	632.004210	-409.135811	213.477646	617.838250	-291.817987	152.341633	265.961680	-376.613968	86.585299	264.193043	-326.030706	245.526104	149.771495	-405.205814	179.520551	522.924502	-426.338503	194.142680	439.953900	-404.272298	164.454827	356.910549	-392.788261	225.362556	442.456257	-380.619695	329.381217	121.624397	-349.100331	-202.745804	867.515881	-215.530829	-48.779992	80.291452	-414.771024	-48.681307	80.370135	-17.250555	
